<mxfile host="app.diagrams.net" modified="2020-08-16T14:14:30.356Z" agent="5.0 (Windows NT 10.0; Win64; x64) AppleWebKit/537.36 (KHTML, like Gecko) Chrome/84.0.4147.125 Safari/537.36" etag="mo0BC2bOkhoWljGbiYvU" version="13.6.2" type="github">
  <diagram id="i6Qw7hJzul03tdrGHvLO" name="Page-1">
    <mxGraphModel dx="2618" dy="2348" grid="1" gridSize="10" guides="1" tooltips="1" connect="1" arrows="1" fold="1" page="1" pageScale="1" pageWidth="850" pageHeight="1100" math="0" shadow="0" extFonts="Old Standard TT^https://fonts.googleapis.com/css?family=Old+Standard+TT">
      <root>
        <mxCell id="0" />
        <mxCell id="1" parent="0" />
        <mxCell id="sYa-I7lM7pY7sQWq7bn0-82" value="&lt;font style=&quot;font-size: 18px&quot; face=&quot;Old Standard TT&quot;&gt;Network Automation Tool&lt;/font&gt;" style="shape=rect;html=1;verticalAlign=top;fontStyle=1;whiteSpace=wrap;align=center;fillColor=none;" vertex="1" parent="1">
          <mxGeometry x="380" y="-340" width="670" height="1100" as="geometry" />
        </mxCell>
        <mxCell id="sYa-I7lM7pY7sQWq7bn0-1" value="&lt;font face=&quot;Old Standard TT&quot; size=&quot;1&quot;&gt;&lt;b style=&quot;font-size: 13px&quot;&gt;IP Engineer&lt;/b&gt;&lt;/font&gt;" style="shape=umlActor;html=1;verticalLabelPosition=bottom;verticalAlign=top;align=center;" vertex="1" parent="1">
          <mxGeometry x="260" y="-200" width="30" height="60" as="geometry" />
        </mxCell>
        <mxCell id="sYa-I7lM7pY7sQWq7bn0-2" value="&lt;font face=&quot;Old Standard TT&quot; size=&quot;1&quot;&gt;&lt;b style=&quot;font-size: 13px&quot;&gt;Administrator&lt;/b&gt;&lt;/font&gt;" style="shape=umlActor;html=1;verticalLabelPosition=bottom;verticalAlign=top;align=center;" vertex="1" parent="1">
          <mxGeometry x="260" y="575" width="30" height="60" as="geometry" />
        </mxCell>
        <mxCell id="sYa-I7lM7pY7sQWq7bn0-7" value="" style="edgeStyle=none;html=1;endArrow=block;endFill=0;endSize=12;verticalAlign=bottom;" edge="1" parent="1">
          <mxGeometry width="160" relative="1" as="geometry">
            <mxPoint x="276" y="570" as="sourcePoint" />
            <mxPoint x="276" y="-110" as="targetPoint" />
          </mxGeometry>
        </mxCell>
        <mxCell id="sYa-I7lM7pY7sQWq7bn0-11" value="&lt;font face=&quot;Old Standard TT&quot; size=&quot;1&quot;&gt;&lt;b style=&quot;font-size: 15px&quot;&gt;Generate Workorder&lt;/b&gt;&lt;/font&gt;" style="ellipse;whiteSpace=wrap;html=1;fillColor=none;" vertex="1" parent="1">
          <mxGeometry x="546" y="-260" width="140" height="70" as="geometry" />
        </mxCell>
        <mxCell id="sYa-I7lM7pY7sQWq7bn0-12" value="&lt;b&gt;&lt;font face=&quot;Old Standard TT&quot; style=&quot;font-size: 14px&quot;&gt;Run Audit Script&lt;/font&gt;&lt;/b&gt;" style="ellipse;whiteSpace=wrap;html=1;fillColor=none;" vertex="1" parent="1">
          <mxGeometry x="546" width="140" height="70" as="geometry" />
        </mxCell>
        <mxCell id="sYa-I7lM7pY7sQWq7bn0-13" value="&lt;font face=&quot;Old Standard TT&quot; size=&quot;1&quot;&gt;&lt;b style=&quot;font-size: 14px&quot;&gt;Manage Tasks&lt;/b&gt;&lt;/font&gt;" style="ellipse;whiteSpace=wrap;html=1;fillColor=none;" vertex="1" parent="1">
          <mxGeometry x="546" y="270" width="140" height="70" as="geometry" />
        </mxCell>
        <mxCell id="sYa-I7lM7pY7sQWq7bn0-14" value="&lt;font face=&quot;Old Standard TT&quot; size=&quot;1&quot;&gt;&lt;b style=&quot;font-size: 14px&quot;&gt;Manage Devices&lt;/b&gt;&lt;/font&gt;" style="ellipse;whiteSpace=wrap;html=1;fillColor=none;" vertex="1" parent="1">
          <mxGeometry x="546" y="450" width="140" height="70" as="geometry" />
        </mxCell>
        <mxCell id="sYa-I7lM7pY7sQWq7bn0-15" value="&lt;b&gt;&lt;font face=&quot;Old Standard TT&quot; style=&quot;font-size: 14px&quot;&gt;Manage Users&lt;/font&gt;&lt;/b&gt;" style="ellipse;whiteSpace=wrap;html=1;fillColor=none;" vertex="1" parent="1">
          <mxGeometry x="546" y="570" width="140" height="70" as="geometry" />
        </mxCell>
        <mxCell id="sYa-I7lM7pY7sQWq7bn0-16" value="&lt;font face=&quot;Old Standard TT&quot; size=&quot;1&quot;&gt;&lt;b style=&quot;font-size: 14px&quot;&gt;Authenticate&lt;/b&gt;&lt;/font&gt;" style="ellipse;whiteSpace=wrap;html=1;fillColor=none;" vertex="1" parent="1">
          <mxGeometry x="900" y="200" width="140" height="70" as="geometry" />
        </mxCell>
        <mxCell id="sYa-I7lM7pY7sQWq7bn0-26" value="&lt;font style=&quot;font-size: 12px&quot;&gt;&amp;lt;&amp;lt;&lt;font face=&quot;Old Standard TT&quot; style=&quot;font-size: 12px&quot;&gt;include&lt;/font&gt;&amp;gt;&amp;gt;&lt;/font&gt;" style="edgeStyle=none;html=1;endArrow=open;verticalAlign=bottom;dashed=1;labelBackgroundColor=none;exitX=1;exitY=0.5;exitDx=0;exitDy=0;entryX=0.5;entryY=0;entryDx=0;entryDy=0;" edge="1" parent="1" source="sYa-I7lM7pY7sQWq7bn0-11" target="sYa-I7lM7pY7sQWq7bn0-16">
          <mxGeometry x="-0.5192" width="160" relative="1" as="geometry">
            <mxPoint x="721" y="-90" as="sourcePoint" />
            <mxPoint x="881" y="-90" as="targetPoint" />
            <Array as="points">
              <mxPoint x="890" y="-225" />
            </Array>
            <mxPoint as="offset" />
          </mxGeometry>
        </mxCell>
        <mxCell id="sYa-I7lM7pY7sQWq7bn0-29" value="" style="edgeStyle=none;html=1;endArrow=none;verticalAlign=bottom;entryX=0;entryY=0.5;entryDx=0;entryDy=0;" edge="1" parent="1" target="sYa-I7lM7pY7sQWq7bn0-11">
          <mxGeometry width="160" relative="1" as="geometry">
            <mxPoint x="311" y="-190" as="sourcePoint" />
            <mxPoint x="571" y="-210" as="targetPoint" />
            <Array as="points">
              <mxPoint x="360" y="-225" />
            </Array>
          </mxGeometry>
        </mxCell>
        <mxCell id="sYa-I7lM7pY7sQWq7bn0-35" value="&lt;font face=&quot;Old Standard TT&quot; size=&quot;1&quot;&gt;&lt;b style=&quot;font-size: 14px&quot;&gt;Manage Workorders&lt;/b&gt;&lt;/font&gt;" style="ellipse;whiteSpace=wrap;html=1;fillColor=none;" vertex="1" parent="1">
          <mxGeometry x="546" y="-170" width="140" height="70" as="geometry" />
        </mxCell>
        <mxCell id="sYa-I7lM7pY7sQWq7bn0-38" value="&lt;b&gt;&lt;font face=&quot;Old Standard TT&quot; style=&quot;font-size: 13px&quot;&gt;Check Workorder History&lt;/font&gt;&lt;/b&gt;" style="ellipse;whiteSpace=wrap;html=1;fillColor=none;" vertex="1" parent="1">
          <mxGeometry x="656" y="-70" width="130" height="60" as="geometry" />
        </mxCell>
        <mxCell id="sYa-I7lM7pY7sQWq7bn0-39" value="&lt;font face=&quot;Old Standard TT&quot; size=&quot;1&quot;&gt;&lt;b style=&quot;font-size: 13px&quot;&gt;Download Workorder&lt;/b&gt;&lt;/font&gt;" style="ellipse;whiteSpace=wrap;html=1;fillColor=none;" vertex="1" parent="1">
          <mxGeometry x="446" y="-70" width="130" height="60" as="geometry" />
        </mxCell>
        <mxCell id="sYa-I7lM7pY7sQWq7bn0-41" value="&lt;font style=&quot;font-size: 12px&quot;&gt;&amp;lt;&amp;lt;&lt;font face=&quot;Old Standard TT&quot; style=&quot;font-size: 12px&quot;&gt;extend&lt;/font&gt;&amp;gt;&amp;gt;&lt;/font&gt;" style="edgeStyle=none;html=1;startArrow=open;endArrow=none;startSize=12;verticalAlign=bottom;dashed=1;labelBackgroundColor=none;entryX=0.5;entryY=0;entryDx=0;entryDy=0;exitX=1;exitY=1;exitDx=0;exitDy=0;" edge="1" parent="1" source="sYa-I7lM7pY7sQWq7bn0-35" target="sYa-I7lM7pY7sQWq7bn0-38">
          <mxGeometry x="0.9468" y="11" width="160" relative="1" as="geometry">
            <mxPoint x="636" y="-80" as="sourcePoint" />
            <mxPoint x="586" y="-100" as="targetPoint" />
            <mxPoint as="offset" />
          </mxGeometry>
        </mxCell>
        <mxCell id="sYa-I7lM7pY7sQWq7bn0-42" value="&amp;lt;&amp;lt;&lt;font face=&quot;Old Standard TT&quot; style=&quot;font-size: 12px&quot;&gt;extend&lt;/font&gt;&amp;gt;&amp;gt;" style="edgeStyle=none;html=1;startArrow=open;endArrow=none;startSize=12;verticalAlign=bottom;dashed=1;labelBackgroundColor=none;exitX=0;exitY=1;exitDx=0;exitDy=0;entryX=0.5;entryY=0;entryDx=0;entryDy=0;" edge="1" parent="1" source="sYa-I7lM7pY7sQWq7bn0-35" target="sYa-I7lM7pY7sQWq7bn0-39">
          <mxGeometry x="0.9468" y="-11" width="160" relative="1" as="geometry">
            <mxPoint x="386" y="-130" as="sourcePoint" />
            <mxPoint x="546" y="-130" as="targetPoint" />
            <mxPoint as="offset" />
          </mxGeometry>
        </mxCell>
        <mxCell id="sYa-I7lM7pY7sQWq7bn0-43" value="&lt;font face=&quot;Old Standard TT&quot; size=&quot;1&quot;&gt;&lt;b style=&quot;font-size: 13px&quot;&gt;Manage Permissions&lt;/b&gt;&lt;/font&gt;" style="ellipse;whiteSpace=wrap;html=1;fillColor=none;" vertex="1" parent="1">
          <mxGeometry x="551" y="670" width="130" height="60" as="geometry" />
        </mxCell>
        <mxCell id="sYa-I7lM7pY7sQWq7bn0-44" value="&lt;b&gt;&lt;font face=&quot;Old Standard TT&quot; style=&quot;font-size: 14px&quot;&gt;Manage Audit Scripts&lt;/font&gt;&lt;/b&gt;" style="ellipse;whiteSpace=wrap;html=1;fillColor=none;" vertex="1" parent="1">
          <mxGeometry x="546" y="90" width="140" height="70" as="geometry" />
        </mxCell>
        <mxCell id="sYa-I7lM7pY7sQWq7bn0-46" value="&lt;font face=&quot;Old Standard TT&quot; size=&quot;1&quot;&gt;&lt;b style=&quot;font-size: 14px&quot;&gt;Upload Script&lt;/b&gt;&lt;/font&gt;" style="ellipse;whiteSpace=wrap;html=1;fillColor=none;" vertex="1" parent="1">
          <mxGeometry x="406" y="190" width="130" height="60" as="geometry" />
        </mxCell>
        <mxCell id="sYa-I7lM7pY7sQWq7bn0-47" value="&lt;b&gt;&lt;font face=&quot;Old Standard TT&quot; style=&quot;font-size: 14px&quot;&gt;Check Audit History&lt;/font&gt;&lt;/b&gt;" style="ellipse;whiteSpace=wrap;html=1;fillColor=none;" vertex="1" parent="1">
          <mxGeometry x="696" y="190" width="130" height="60" as="geometry" />
        </mxCell>
        <mxCell id="sYa-I7lM7pY7sQWq7bn0-48" value="&lt;font style=&quot;font-size: 12px&quot;&gt;&amp;lt;&amp;lt;&lt;font face=&quot;Old Standard TT&quot; style=&quot;font-size: 12px&quot;&gt;extend&lt;/font&gt;&amp;gt;&amp;gt;&lt;/font&gt;" style="edgeStyle=none;html=1;startArrow=open;endArrow=none;startSize=12;verticalAlign=bottom;dashed=1;labelBackgroundColor=none;entryX=0.5;entryY=0;entryDx=0;entryDy=0;" edge="1" parent="1" source="sYa-I7lM7pY7sQWq7bn0-44" target="sYa-I7lM7pY7sQWq7bn0-47">
          <mxGeometry x="0.8298" y="7" width="160" relative="1" as="geometry">
            <mxPoint x="566" y="180" as="sourcePoint" />
            <mxPoint x="726" y="180" as="targetPoint" />
            <mxPoint as="offset" />
          </mxGeometry>
        </mxCell>
        <mxCell id="sYa-I7lM7pY7sQWq7bn0-49" value="&lt;font style=&quot;font-size: 12px&quot;&gt;&amp;lt;&amp;lt;&lt;font face=&quot;Old Standard TT&quot; style=&quot;font-size: 12px&quot;&gt;extend&lt;/font&gt;&amp;gt;&amp;gt;&lt;/font&gt;" style="edgeStyle=none;html=1;startArrow=open;endArrow=none;startSize=12;verticalAlign=bottom;dashed=1;labelBackgroundColor=none;exitX=0;exitY=1;exitDx=0;exitDy=0;entryX=0.5;entryY=0;entryDx=0;entryDy=0;" edge="1" parent="1" source="sYa-I7lM7pY7sQWq7bn0-44" target="sYa-I7lM7pY7sQWq7bn0-46">
          <mxGeometry x="0.8361" y="-7" width="160" relative="1" as="geometry">
            <mxPoint x="516" y="180" as="sourcePoint" />
            <mxPoint x="676" y="180" as="targetPoint" />
            <mxPoint as="offset" />
          </mxGeometry>
        </mxCell>
        <mxCell id="sYa-I7lM7pY7sQWq7bn0-50" value="&lt;font face=&quot;Old Standard TT&quot; size=&quot;1&quot;&gt;&lt;b style=&quot;font-size: 14px&quot;&gt;Check Output&lt;/b&gt;&lt;/font&gt;" style="ellipse;whiteSpace=wrap;html=1;fillColor=none;" vertex="1" parent="1">
          <mxGeometry x="551" y="190" width="130" height="60" as="geometry" />
        </mxCell>
        <mxCell id="sYa-I7lM7pY7sQWq7bn0-51" value="&lt;font style=&quot;font-size: 12px&quot;&gt;&amp;lt;&amp;lt;&lt;font face=&quot;Old Standard TT&quot; style=&quot;font-size: 12px&quot;&gt;extend&lt;/font&gt;&amp;gt;&amp;gt;&lt;/font&gt;" style="edgeStyle=none;html=1;startArrow=open;endArrow=none;startSize=12;verticalAlign=bottom;dashed=1;labelBackgroundColor=none;exitX=0.5;exitY=1;exitDx=0;exitDy=0;entryX=0.5;entryY=0;entryDx=0;entryDy=0;" edge="1" parent="1" source="sYa-I7lM7pY7sQWq7bn0-44" target="sYa-I7lM7pY7sQWq7bn0-50">
          <mxGeometry x="1" y="30" width="160" relative="1" as="geometry">
            <mxPoint x="436" y="120" as="sourcePoint" />
            <mxPoint x="596" y="120" as="targetPoint" />
            <mxPoint as="offset" />
          </mxGeometry>
        </mxCell>
        <mxCell id="sYa-I7lM7pY7sQWq7bn0-52" value="&lt;font style=&quot;font-size: 12px&quot;&gt;&amp;lt;&amp;lt;&lt;font face=&quot;Old Standard TT&quot; style=&quot;font-size: 12px&quot;&gt;extend&lt;/font&gt;&amp;gt;&amp;gt;&lt;/font&gt;" style="edgeStyle=none;html=1;startArrow=open;endArrow=none;startSize=12;verticalAlign=bottom;dashed=1;labelBackgroundColor=none;exitX=0.5;exitY=1;exitDx=0;exitDy=0;entryX=0.5;entryY=0;entryDx=0;entryDy=0;" edge="1" parent="1" source="sYa-I7lM7pY7sQWq7bn0-15" target="sYa-I7lM7pY7sQWq7bn0-43">
          <mxGeometry x="1" y="30" width="160" relative="1" as="geometry">
            <mxPoint x="446" y="580" as="sourcePoint" />
            <mxPoint x="606" y="580" as="targetPoint" />
            <mxPoint as="offset" />
          </mxGeometry>
        </mxCell>
        <mxCell id="sYa-I7lM7pY7sQWq7bn0-53" value="&lt;b&gt;&lt;font face=&quot;Old Standard TT&quot; style=&quot;font-size: 13px&quot;&gt;Check Last Output&lt;/font&gt;&lt;/b&gt;" style="ellipse;whiteSpace=wrap;html=1;fillColor=none;" vertex="1" parent="1">
          <mxGeometry x="551" y="370" width="130" height="60" as="geometry" />
        </mxCell>
        <mxCell id="sYa-I7lM7pY7sQWq7bn0-54" value="&lt;b&gt;&lt;font face=&quot;Old Standard TT&quot; style=&quot;font-size: 13px&quot;&gt;Schedule Task&lt;/font&gt;&lt;/b&gt;" style="ellipse;whiteSpace=wrap;html=1;fillColor=none;" vertex="1" parent="1">
          <mxGeometry x="406" y="370" width="130" height="60" as="geometry" />
        </mxCell>
        <mxCell id="sYa-I7lM7pY7sQWq7bn0-55" value="&lt;b&gt;&lt;font face=&quot;Old Standard TT&quot; style=&quot;font-size: 13px&quot;&gt;Check History/Status&lt;/font&gt;&lt;/b&gt;" style="ellipse;whiteSpace=wrap;html=1;fillColor=none;" vertex="1" parent="1">
          <mxGeometry x="696" y="370" width="130" height="60" as="geometry" />
        </mxCell>
        <mxCell id="sYa-I7lM7pY7sQWq7bn0-56" value="&lt;font style=&quot;font-size: 12px&quot;&gt;&amp;lt;&amp;lt;&lt;font face=&quot;Old Standard TT&quot; style=&quot;font-size: 12px&quot;&gt;extend&lt;/font&gt;&amp;gt;&amp;gt;&lt;/font&gt;" style="edgeStyle=none;html=1;startArrow=open;endArrow=none;startSize=12;verticalAlign=bottom;dashed=1;labelBackgroundColor=none;exitX=1;exitY=1;exitDx=0;exitDy=0;entryX=0.5;entryY=0;entryDx=0;entryDy=0;" edge="1" parent="1" source="sYa-I7lM7pY7sQWq7bn0-13" target="sYa-I7lM7pY7sQWq7bn0-55">
          <mxGeometry x="0.8358" y="7" width="160" relative="1" as="geometry">
            <mxPoint x="706" y="320" as="sourcePoint" />
            <mxPoint x="866" y="320" as="targetPoint" />
            <mxPoint as="offset" />
          </mxGeometry>
        </mxCell>
        <mxCell id="sYa-I7lM7pY7sQWq7bn0-57" value="&lt;font style=&quot;font-size: 12px&quot;&gt;&amp;lt;&amp;lt;&lt;font face=&quot;Old Standard TT&quot; style=&quot;font-size: 12px&quot;&gt;extend&lt;/font&gt;&amp;gt;&amp;gt;&lt;/font&gt;" style="edgeStyle=none;html=1;startArrow=open;endArrow=none;startSize=12;verticalAlign=bottom;dashed=1;labelBackgroundColor=none;entryX=0.5;entryY=0;entryDx=0;entryDy=0;exitX=0.5;exitY=1;exitDx=0;exitDy=0;" edge="1" parent="1" source="sYa-I7lM7pY7sQWq7bn0-13" target="sYa-I7lM7pY7sQWq7bn0-53">
          <mxGeometry x="1" y="30" width="160" relative="1" as="geometry">
            <mxPoint x="566" y="360" as="sourcePoint" />
            <mxPoint x="646" y="340" as="targetPoint" />
            <mxPoint as="offset" />
          </mxGeometry>
        </mxCell>
        <mxCell id="sYa-I7lM7pY7sQWq7bn0-58" value="&lt;font style=&quot;font-size: 12px&quot;&gt;&amp;lt;&amp;lt;&lt;font face=&quot;Old Standard TT&quot; style=&quot;font-size: 12px&quot;&gt;extend&lt;/font&gt;&amp;gt;&amp;gt;&lt;/font&gt;" style="edgeStyle=none;html=1;startArrow=open;endArrow=none;startSize=12;verticalAlign=bottom;dashed=1;labelBackgroundColor=none;exitX=0;exitY=1;exitDx=0;exitDy=0;entryX=0.5;entryY=0;entryDx=0;entryDy=0;" edge="1" parent="1" source="sYa-I7lM7pY7sQWq7bn0-13" target="sYa-I7lM7pY7sQWq7bn0-54">
          <mxGeometry x="0.8358" y="-7" width="160" relative="1" as="geometry">
            <mxPoint x="516" y="360" as="sourcePoint" />
            <mxPoint x="676" y="360" as="targetPoint" />
            <mxPoint as="offset" />
          </mxGeometry>
        </mxCell>
        <mxCell id="sYa-I7lM7pY7sQWq7bn0-59" value="" style="edgeStyle=none;html=1;endArrow=none;verticalAlign=bottom;entryX=0;entryY=0.5;entryDx=0;entryDy=0;" edge="1" parent="1" target="sYa-I7lM7pY7sQWq7bn0-35">
          <mxGeometry width="160" relative="1" as="geometry">
            <mxPoint x="311" y="-180" as="sourcePoint" />
            <mxPoint x="601" y="60" as="targetPoint" />
            <Array as="points">
              <mxPoint x="360" y="-135" />
            </Array>
          </mxGeometry>
        </mxCell>
        <mxCell id="sYa-I7lM7pY7sQWq7bn0-61" value="" style="edgeStyle=none;html=1;endArrow=none;verticalAlign=bottom;entryX=0;entryY=0.5;entryDx=0;entryDy=0;" edge="1" parent="1" target="sYa-I7lM7pY7sQWq7bn0-12">
          <mxGeometry width="160" relative="1" as="geometry">
            <mxPoint x="311" y="-170" as="sourcePoint" />
            <mxPoint x="551" y="80" as="targetPoint" />
            <Array as="points">
              <mxPoint x="360" y="35" />
            </Array>
          </mxGeometry>
        </mxCell>
        <mxCell id="sYa-I7lM7pY7sQWq7bn0-62" value="" style="edgeStyle=none;html=1;endArrow=none;verticalAlign=bottom;entryX=0;entryY=0.5;entryDx=0;entryDy=0;" edge="1" parent="1" target="sYa-I7lM7pY7sQWq7bn0-44">
          <mxGeometry width="160" relative="1" as="geometry">
            <mxPoint x="311" y="-160" as="sourcePoint" />
            <mxPoint x="491" y="140" as="targetPoint" />
            <Array as="points">
              <mxPoint x="360" y="125" />
            </Array>
          </mxGeometry>
        </mxCell>
        <mxCell id="sYa-I7lM7pY7sQWq7bn0-63" value="" style="edgeStyle=none;html=1;endArrow=none;verticalAlign=bottom;entryX=0;entryY=0.5;entryDx=0;entryDy=0;rounded=1;" edge="1" parent="1" target="sYa-I7lM7pY7sQWq7bn0-13">
          <mxGeometry width="160" relative="1" as="geometry">
            <mxPoint x="311" y="-140" as="sourcePoint" />
            <mxPoint x="501" y="80" as="targetPoint" />
            <Array as="points">
              <mxPoint x="360" y="305" />
            </Array>
          </mxGeometry>
        </mxCell>
        <mxCell id="sYa-I7lM7pY7sQWq7bn0-64" value="" style="edgeStyle=none;html=1;endArrow=none;verticalAlign=bottom;entryX=0;entryY=0.5;entryDx=0;entryDy=0;" edge="1" parent="1" target="sYa-I7lM7pY7sQWq7bn0-14">
          <mxGeometry width="160" relative="1" as="geometry">
            <mxPoint x="311" y="-120" as="sourcePoint" />
            <mxPoint x="431" y="440" as="targetPoint" />
            <Array as="points">
              <mxPoint x="350" y="485" />
            </Array>
          </mxGeometry>
        </mxCell>
        <mxCell id="sYa-I7lM7pY7sQWq7bn0-65" value="" style="edgeStyle=none;html=1;endArrow=none;verticalAlign=bottom;entryX=0;entryY=0.5;entryDx=0;entryDy=0;" edge="1" parent="1" source="sYa-I7lM7pY7sQWq7bn0-2" target="sYa-I7lM7pY7sQWq7bn0-15">
          <mxGeometry width="160" relative="1" as="geometry">
            <mxPoint x="301" y="575" as="sourcePoint" />
            <mxPoint x="351" y="420" as="targetPoint" />
            <Array as="points" />
          </mxGeometry>
        </mxCell>
        <mxCell id="sYa-I7lM7pY7sQWq7bn0-66" value="&lt;font style=&quot;font-size: 12px&quot;&gt;&amp;lt;&amp;lt;&lt;font face=&quot;Old Standard TT&quot; style=&quot;font-size: 12px&quot;&gt;include&lt;/font&gt;&amp;gt;&amp;gt;&lt;/font&gt;" style="edgeStyle=none;html=1;endArrow=open;verticalAlign=bottom;dashed=1;labelBackgroundColor=none;entryX=0.416;entryY=0.011;entryDx=0;entryDy=0;entryPerimeter=0;exitX=1;exitY=0.5;exitDx=0;exitDy=0;" edge="1" parent="1" source="sYa-I7lM7pY7sQWq7bn0-35" target="sYa-I7lM7pY7sQWq7bn0-16">
          <mxGeometry x="-0.4412" width="160" relative="1" as="geometry">
            <mxPoint x="941" y="-120" as="sourcePoint" />
            <mxPoint x="1101" y="-120" as="targetPoint" />
            <Array as="points">
              <mxPoint x="890" y="-135" />
            </Array>
            <mxPoint as="offset" />
          </mxGeometry>
        </mxCell>
        <mxCell id="sYa-I7lM7pY7sQWq7bn0-67" value="&lt;font style=&quot;font-size: 12px&quot;&gt;&amp;lt;&amp;lt;&lt;font face=&quot;Old Standard TT&quot; style=&quot;font-size: 12px&quot;&gt;include&lt;/font&gt;&amp;gt;&amp;gt;&lt;/font&gt;" style="edgeStyle=none;html=1;endArrow=open;verticalAlign=bottom;dashed=1;labelBackgroundColor=none;exitX=1;exitY=0.5;exitDx=0;exitDy=0;entryX=0.313;entryY=0.034;entryDx=0;entryDy=0;entryPerimeter=0;" edge="1" parent="1" source="sYa-I7lM7pY7sQWq7bn0-12" target="sYa-I7lM7pY7sQWq7bn0-16">
          <mxGeometry x="-0.204" width="160" relative="1" as="geometry">
            <mxPoint x="911" y="10" as="sourcePoint" />
            <mxPoint x="1122" y="210" as="targetPoint" />
            <Array as="points">
              <mxPoint x="890" y="35" />
            </Array>
            <mxPoint as="offset" />
          </mxGeometry>
        </mxCell>
        <mxCell id="sYa-I7lM7pY7sQWq7bn0-68" value="&lt;font style=&quot;font-size: 12px&quot;&gt;&amp;lt;&amp;lt;&lt;font face=&quot;Old Standard TT&quot; style=&quot;font-size: 12px&quot;&gt;include&lt;/font&gt;&amp;gt;&amp;gt;&lt;/font&gt;" style="edgeStyle=none;html=1;endArrow=open;verticalAlign=bottom;dashed=1;labelBackgroundColor=none;entryX=0.221;entryY=0.091;entryDx=0;entryDy=0;entryPerimeter=0;exitX=1;exitY=0.5;exitDx=0;exitDy=0;" edge="1" parent="1" source="sYa-I7lM7pY7sQWq7bn0-44" target="sYa-I7lM7pY7sQWq7bn0-16">
          <mxGeometry x="0.0077" width="160" relative="1" as="geometry">
            <mxPoint x="851" y="110" as="sourcePoint" />
            <mxPoint x="1011" y="110" as="targetPoint" />
            <Array as="points">
              <mxPoint x="890" y="125" />
            </Array>
            <mxPoint as="offset" />
          </mxGeometry>
        </mxCell>
        <mxCell id="sYa-I7lM7pY7sQWq7bn0-69" value="&lt;font style=&quot;font-size: 12px&quot;&gt;&amp;lt;&amp;lt;&lt;font face=&quot;Old Standard TT&quot; style=&quot;font-size: 12px&quot;&gt;include&lt;/font&gt;&amp;gt;&amp;gt;&lt;/font&gt;" style="edgeStyle=none;html=1;endArrow=open;verticalAlign=bottom;dashed=1;labelBackgroundColor=none;entryX=0.5;entryY=1;entryDx=0;entryDy=0;exitX=1;exitY=0.5;exitDx=0;exitDy=0;" edge="1" parent="1" source="sYa-I7lM7pY7sQWq7bn0-14" target="sYa-I7lM7pY7sQWq7bn0-16">
          <mxGeometry x="-0.3018" width="160" relative="1" as="geometry">
            <mxPoint x="881" y="340" as="sourcePoint" />
            <mxPoint x="1041" y="340" as="targetPoint" />
            <Array as="points">
              <mxPoint x="890" y="485" />
            </Array>
            <mxPoint as="offset" />
          </mxGeometry>
        </mxCell>
        <mxCell id="sYa-I7lM7pY7sQWq7bn0-70" value="&lt;font style=&quot;font-size: 12px&quot;&gt;&amp;lt;&amp;lt;&lt;font face=&quot;Old Standard TT&quot; style=&quot;font-size: 12px&quot;&gt;include&lt;/font&gt;&amp;gt;&amp;gt;&lt;/font&gt;" style="edgeStyle=none;html=1;endArrow=open;verticalAlign=bottom;dashed=1;labelBackgroundColor=none;exitX=1;exitY=0.5;exitDx=0;exitDy=0;entryX=0.39;entryY=0.991;entryDx=0;entryDy=0;entryPerimeter=0;" edge="1" parent="1" source="sYa-I7lM7pY7sQWq7bn0-13" target="sYa-I7lM7pY7sQWq7bn0-16">
          <mxGeometry x="0.0413" width="160" relative="1" as="geometry">
            <mxPoint x="971" y="310" as="sourcePoint" />
            <mxPoint x="1131" y="310" as="targetPoint" />
            <Array as="points">
              <mxPoint x="890" y="305" />
            </Array>
            <mxPoint as="offset" />
          </mxGeometry>
        </mxCell>
        <mxCell id="sYa-I7lM7pY7sQWq7bn0-71" value="&lt;font style=&quot;font-size: 12px&quot;&gt;&amp;lt;&amp;lt;&lt;font face=&quot;Old Standard TT&quot; style=&quot;font-size: 12px&quot;&gt;include&lt;/font&gt;&amp;gt;&amp;gt;&lt;/font&gt;" style="edgeStyle=none;html=1;endArrow=open;verticalAlign=bottom;dashed=1;labelBackgroundColor=none;exitX=1;exitY=0.5;exitDx=0;exitDy=0;entryX=0.65;entryY=0.991;entryDx=0;entryDy=0;entryPerimeter=0;" edge="1" parent="1" source="sYa-I7lM7pY7sQWq7bn0-15" target="sYa-I7lM7pY7sQWq7bn0-16">
          <mxGeometry x="-0.4806" width="160" relative="1" as="geometry">
            <mxPoint x="881" y="510" as="sourcePoint" />
            <mxPoint x="1041" y="510" as="targetPoint" />
            <Array as="points">
              <mxPoint x="890" y="605" />
            </Array>
            <mxPoint as="offset" />
          </mxGeometry>
        </mxCell>
        <mxCell id="sYa-I7lM7pY7sQWq7bn0-76" value="&lt;p style=&quot;margin: 4px 0px 0px ; text-align: center ; font-size: 13px&quot;&gt;&amp;lt;&amp;lt;&lt;font style=&quot;font-size: 13px&quot; face=&quot;Old Standard TT&quot;&gt;actor&lt;/font&gt;&amp;gt;&amp;gt;&lt;br&gt;&lt;b&gt;&lt;font face=&quot;Old Standard TT&quot; style=&quot;font-size: 13px&quot;&gt;TiMOS Export&lt;/font&gt;&lt;/b&gt;&lt;/p&gt;" style="shape=rect;html=1;overflow=fill;html=1;whiteSpace=wrap;align=center;fillColor=none;" vertex="1" parent="1">
          <mxGeometry x="1075" y="-240" width="200" height="40" as="geometry" />
        </mxCell>
        <mxCell id="sYa-I7lM7pY7sQWq7bn0-77" value="&lt;p style=&quot;margin: 4px 0px 0px ; text-align: center ; font-size: 13px&quot;&gt;&amp;lt;&amp;lt;&lt;font face=&quot;Old Standard TT&quot; style=&quot;font-size: 13px&quot;&gt;actor&lt;/font&gt;&amp;gt;&amp;gt;&lt;br&gt;&lt;b&gt;&lt;font face=&quot;Old Standard TT&quot; style=&quot;font-size: 13px&quot;&gt;MPLS Network&lt;/font&gt;&lt;/b&gt;&lt;/p&gt;" style="shape=rect;html=1;overflow=fill;html=1;whiteSpace=wrap;align=center;fillColor=none;" vertex="1" parent="1">
          <mxGeometry x="1075" y="20" width="200" height="40" as="geometry" />
        </mxCell>
        <mxCell id="sYa-I7lM7pY7sQWq7bn0-79" value="" style="edgeStyle=none;html=1;endArrow=none;verticalAlign=bottom;entryX=0;entryY=0.5;entryDx=0;entryDy=0;jumpStyle=none;exitX=0.995;exitY=0.578;exitDx=0;exitDy=0;exitPerimeter=0;" edge="1" parent="1" source="sYa-I7lM7pY7sQWq7bn0-11" target="sYa-I7lM7pY7sQWq7bn0-76">
          <mxGeometry width="160" relative="1" as="geometry">
            <mxPoint x="794" y="-210" as="sourcePoint" />
            <mxPoint x="1401" y="-100" as="targetPoint" />
          </mxGeometry>
        </mxCell>
        <mxCell id="sYa-I7lM7pY7sQWq7bn0-80" value="" style="edgeStyle=none;html=1;endArrow=none;verticalAlign=bottom;exitX=0.996;exitY=0.574;exitDx=0;exitDy=0;exitPerimeter=0;entryX=0;entryY=0.5;entryDx=0;entryDy=0;" edge="1" parent="1" source="sYa-I7lM7pY7sQWq7bn0-12" target="sYa-I7lM7pY7sQWq7bn0-77">
          <mxGeometry width="160" relative="1" as="geometry">
            <mxPoint x="991" y="-10" as="sourcePoint" />
            <mxPoint x="1221" y="40" as="targetPoint" />
          </mxGeometry>
        </mxCell>
        <mxCell id="sYa-I7lM7pY7sQWq7bn0-81" value="" style="edgeStyle=none;html=1;endArrow=none;verticalAlign=bottom;exitX=0.952;exitY=0.713;exitDx=0;exitDy=0;exitPerimeter=0;entryX=0.082;entryY=0.004;entryDx=0;entryDy=0;entryPerimeter=0;" edge="1" parent="1" source="sYa-I7lM7pY7sQWq7bn0-11" target="sYa-I7lM7pY7sQWq7bn0-77">
          <mxGeometry width="160" relative="1" as="geometry">
            <mxPoint x="981" y="-180" as="sourcePoint" />
            <mxPoint x="1141" y="-180" as="targetPoint" />
            <Array as="points">
              <mxPoint x="1060" y="-210" />
            </Array>
          </mxGeometry>
        </mxCell>
        <mxCell id="sYa-I7lM7pY7sQWq7bn0-85" value="&lt;b&gt;&lt;font face=&quot;Old Standard TT&quot; style=&quot;font-size: 14px&quot;&gt;Validate Admin&lt;/font&gt;&lt;/b&gt;" style="ellipse;whiteSpace=wrap;html=1;fillColor=none;" vertex="1" parent="1">
          <mxGeometry x="900" y="620" width="140" height="70" as="geometry" />
        </mxCell>
        <mxCell id="sYa-I7lM7pY7sQWq7bn0-87" value="&lt;font style=&quot;font-size: 12px&quot;&gt;&amp;lt;&amp;lt;&lt;font face=&quot;Old Standard TT&quot;&gt;include&lt;/font&gt;&amp;gt;&amp;gt;&lt;/font&gt;" style="edgeStyle=none;html=1;endArrow=open;verticalAlign=bottom;dashed=1;labelBackgroundColor=none;entryX=0.084;entryY=0.228;entryDx=0;entryDy=0;exitX=0.986;exitY=0.643;exitDx=0;exitDy=0;exitPerimeter=0;entryPerimeter=0;" edge="1" parent="1" source="sYa-I7lM7pY7sQWq7bn0-15" target="sYa-I7lM7pY7sQWq7bn0-85">
          <mxGeometry x="0.7441" y="-65" width="160" relative="1" as="geometry">
            <mxPoint x="801" y="630" as="sourcePoint" />
            <mxPoint x="961" y="630" as="targetPoint" />
            <Array as="points">
              <mxPoint x="890" y="615" />
            </Array>
            <mxPoint x="-15" y="-22" as="offset" />
          </mxGeometry>
        </mxCell>
      </root>
    </mxGraphModel>
  </diagram>
</mxfile>
